<?xml version="1.0" standalone="no"?>
<!DOCTYPE svg PUBLIC "-//W3C//DTD SVG 1.1//EN" "http://www.w3.org/Graphics/SVG/1.1/DTD/svg11.dtd">
<svg width="466" height="322" version="1.1" xmlns="http://www.w3.org/2000/svg">
<rect x="159" y="25" width="71" height="22" style="fill:rgb(255,255,255);stroke:rgb(0,0,0);stroke-width:1"/>
<text x="194.5" y="36" style="font-family:Arial;font-size:8pt;fill:rgb(0,0,0);font-weight:bold;text-anchor:middle;dominant-baseline:central">ZeroTwist</text>
<line x1="161" y1="27" x2="169" y2="27" style="stroke:rgb(0,0,0);stroke-width:1"/>
<line x1="161" y1="29" x2="167" y2="29" style="stroke:rgb(0,0,0);stroke-width:1"/>
<line x1="161" y1="31" x2="167" y2="31" style="stroke:rgb(0,0,0);stroke-width:1"/>
<line x1="161" y1="33" x2="167" y2="33" style="stroke:rgb(0,0,0);stroke-width:1"/>
<line x1="160" y1="46" x2="163" y2="43" style="stroke:rgb(0,0,0);stroke-width:2"/>
<path d="M163 43 L165 45 L166 40 L161 41 L163 43 Z" style="fill:rgb(0,0,0)"/>

<rect x="159" y="77" width="94" height="22" style="fill:rgb(255,255,255);stroke:rgb(0,0,0);stroke-width:1"/>
<text x="206" y="88" style="font-family:Arial;font-size:8pt;fill:rgb(0,0,0);font-weight:bold;text-anchor:middle;dominant-baseline:central">ConstantTwist</text>
<line x1="160" y1="98" x2="163" y2="95" style="stroke:rgb(0,0,0);stroke-width:2"/>
<path d="M163 95 L165 97 L166 92 L161 93 L163 95 Z" style="fill:rgb(0,0,0)"/>

<rect x="159" y="129" width="80" height="22" style="fill:rgb(255,255,255);stroke:rgb(0,0,0);stroke-width:1"/>
<text x="199" y="140" style="font-family:Arial;font-size:8pt;fill:rgb(0,0,0);font-weight:bold;text-anchor:middle;dominant-baseline:central">LinearTwist</text>
<line x1="160" y1="150" x2="163" y2="147" style="stroke:rgb(0,0,0);stroke-width:2"/>
<path d="M163 147 L165 149 L166 144 L161 145 L163 147 Z" style="fill:rgb(0,0,0)"/>

<rect x="381" y="184" width="78" height="22" style="fill:rgb(255,255,255);stroke:rgb(0,0,0);stroke-width:1"/>
<rect x="378" y="181" width="78" height="22" style="fill:rgb(255,255,255);stroke:rgb(0,0,0);stroke-width:1"/>
<text x="417" y="192" style="font-family:Arial;font-size:8pt;fill:rgb(0,0,0);font-weight:bold;text-anchor:middle;dominant-baseline:central">TwistAngle</text>
<text x="446" y="213" style="font-family:Arial;font-size:7.2pt;fill:rgb(0,0,0);text-anchor:end;dominant-baseline:central">2..∞</text>
<line x1="379" y1="202" x2="382" y2="199" style="stroke:rgb(0,0,0);stroke-width:2"/>
<path d="M382 199 L384 201 L385 196 L380 197 L382 199 Z" style="fill:rgb(0,0,0)"/>

<line x1="358" y1="192" x2="378" y2="192" style="stroke:rgb(0,0,0);stroke-width:1;stroke-linecap:round"/>
<path d="M324 182 L347 182 L353 188 L353 196 L347 202 L324 202 L318 196 L318 188 Z" style="fill:rgb(255,255,255);stroke:rgb(0,0,0);stroke-width:1"/>
<line x1="321" y1="192" x2="350" y2="192" style="stroke:rgb(0,0,0);stroke-width:1"/>
<ellipse cx="330" cy="192" rx="2" ry="2" style="rgb(0,0,0)"/>
<ellipse cx="335" cy="192" rx="2" ry="2" style="rgb(0,0,0)"/>
<ellipse cx="340" cy="192" rx="2" ry="2" style="rgb(0,0,0)"/>
<rect x="348" y="187" width="10" height="10" style="fill:rgb(255,255,255);stroke:rgb(0,0,0);stroke-width:1"/>
<line x1="350" y1="192" x2="356" y2="192" style="stroke:rgb(0,0,0);stroke-width:1"/>

<line x1="298" y1="192" x2="318" y2="192" style="stroke:rgb(0,0,0);stroke-width:1;stroke-linecap:round"/>
<rect x="159" y="181" width="134" height="22" style="fill:rgb(255,255,255);stroke:rgb(0,0,0);stroke-width:1"/>
<text x="226" y="192" style="font-family:Arial;font-size:8pt;fill:rgb(0,0,0);font-weight:bold;text-anchor:middle;dominant-baseline:central">PiecewiseLinearTwist</text>
<line x1="160" y1="202" x2="163" y2="199" style="stroke:rgb(0,0,0);stroke-width:2"/>
<path d="M163 199 L165 201 L166 196 L161 197 L163 199 Z" style="fill:rgb(0,0,0)"/>
<rect x="288" y="187" width="10" height="10" style="fill:rgb(255,255,255);stroke:rgb(0,0,0);stroke-width:1"/>
<line x1="290" y1="192" x2="296" y2="192" style="stroke:rgb(0,0,0);stroke-width:1"/>

<rect x="351" y="233" width="55" height="22" style="fill:rgb(255,255,255);stroke:rgb(0,0,0);stroke-width:1"/>
<text x="378.5" y="244" style="font-family:Arial;font-size:8pt;fill:rgb(0,0,0);font-weight:bold;text-anchor:middle;dominant-baseline:central">Vector</text>
<line x1="352" y1="254" x2="355" y2="251" style="stroke:rgb(0,0,0);stroke-width:2"/>
<path d="M355 251 L357 253 L358 248 L353 249 L355 251 Z" style="fill:rgb(0,0,0)"/>

<line x1="331" y1="244" x2="351" y2="244" style="stroke:rgb(0,0,0);stroke-width:1;stroke-linecap:round"/>
<path d="M297 234 L320 234 L326 240 L326 248 L320 254 L297 254 L291 248 L291 240 Z" style="fill:rgb(255,255,255);stroke:rgb(0,0,0);stroke-width:1"/>
<line x1="294" y1="244" x2="323" y2="244" style="stroke:rgb(0,0,0);stroke-width:1"/>
<ellipse cx="303" cy="244" rx="2" ry="2" style="rgb(0,0,0)"/>
<ellipse cx="308" cy="244" rx="2" ry="2" style="rgb(0,0,0)"/>
<ellipse cx="313" cy="244" rx="2" ry="2" style="rgb(0,0,0)"/>
<rect x="321" y="239" width="10" height="10" style="fill:rgb(255,255,255);stroke:rgb(0,0,0);stroke-width:1"/>
<line x1="323" y1="244" x2="329" y2="244" style="stroke:rgb(0,0,0);stroke-width:1"/>

<line x1="271" y1="244" x2="291" y2="244" style="stroke:rgb(0,0,0);stroke-width:1;stroke-linecap:round"/>
<rect x="159" y="233" width="107" height="22" style="fill:rgb(255,255,255);stroke:rgb(0,0,0);stroke-width:1"/>
<text x="212.5" y="244" style="font-family:Arial;font-size:8pt;fill:rgb(0,0,0);font-weight:bold;text-anchor:middle;dominant-baseline:central">DirectionalTwist</text>
<line x1="160" y1="254" x2="163" y2="251" style="stroke:rgb(0,0,0);stroke-width:2"/>
<path d="M163 251 L165 253 L166 248 L161 249 L163 251 Z" style="fill:rgb(0,0,0)"/>
<rect x="261" y="239" width="10" height="10" style="fill:rgb(255,255,255);stroke:rgb(0,0,0);stroke-width:1"/>
<line x1="263" y1="244" x2="269" y2="244" style="stroke:rgb(0,0,0);stroke-width:1"/>

<rect x="352" y="288" width="54" height="22" style="fill:rgb(255,255,255);stroke:rgb(0,0,0);stroke-width:1;stroke-dasharray:4,1"/>
<rect x="349" y="285" width="54" height="22" style="fill:rgb(255,255,255);stroke:rgb(0,0,0);stroke-width:1;stroke-dasharray:4,1"/>
<text x="376" y="296" style="font-family:Arial;font-size:8pt;fill:rgb(0,0,0);font-weight:bold;text-anchor:middle;dominant-baseline:central">Twist</text>
<text x="398" y="317" style="font-family:Arial;font-size:7.2pt;fill:rgb(0,0,0);text-anchor:end;dominant-baseline:central">0..2</text>
<line x1="350" y1="306" x2="353" y2="303" style="stroke:rgb(0,0,0);stroke-width:2"/>
<path d="M353 303 L355 305 L356 300 L351 301 L353 303 Z" style="fill:rgb(0,0,0)"/>
<rect x="398" y="291" width="10" height="10" style="fill:rgb(255,255,255);stroke:rgb(0,0,0);stroke-width:1"/>
<line x1="400" y1="296" x2="406" y2="296" style="stroke:rgb(0,0,0);stroke-width:1"/>
<line x1="403" y1="293" x2="403" y2="299" style="stroke:rgb(0,0,0);stroke-width:1"/>

<line x1="329" y1="296" x2="349" y2="296" style="stroke:rgb(0,0,0);stroke-width:1;stroke-linecap:round"/>
<path d="M295 286 L318 286 L324 292 L324 300 L318 306 L295 306 L289 300 L289 292 Z" style="fill:rgb(255,255,255);stroke:rgb(0,0,0);stroke-width:1"/>
<line x1="292" y1="296" x2="321" y2="296" style="stroke:rgb(0,0,0);stroke-width:1"/>
<ellipse cx="301" cy="296" rx="2" ry="2" style="rgb(0,0,0)"/>
<ellipse cx="306" cy="296" rx="2" ry="2" style="rgb(0,0,0)"/>
<ellipse cx="311" cy="296" rx="2" ry="2" style="rgb(0,0,0)"/>
<rect x="319" y="291" width="10" height="10" style="fill:rgb(255,255,255);stroke:rgb(0,0,0);stroke-width:1"/>
<line x1="321" y1="296" x2="327" y2="296" style="stroke:rgb(0,0,0);stroke-width:1"/>

<line x1="269" y1="296" x2="289" y2="296" style="stroke:rgb(0,0,0);stroke-width:1;stroke-linecap:round"/>
<rect x="159" y="285" width="105" height="22" style="fill:rgb(255,255,255);stroke:rgb(0,0,0);stroke-width:1"/>
<text x="211.5" y="296" style="font-family:Arial;font-size:8pt;fill:rgb(0,0,0);font-weight:bold;text-anchor:middle;dominant-baseline:central">CombinedTwist</text>
<rect x="259" y="291" width="10" height="10" style="fill:rgb(255,255,255);stroke:rgb(0,0,0);stroke-width:1"/>
<line x1="261" y1="296" x2="267" y2="296" style="stroke:rgb(0,0,0);stroke-width:1"/>

<line x1="149" y1="36" x2="159" y2="36" style="stroke:rgb(0,0,0);stroke-width:1;stroke-linecap:round"/>
<line x1="149" y1="88" x2="159" y2="88" style="stroke:rgb(0,0,0);stroke-width:1;stroke-linecap:round"/>
<line x1="149" y1="140" x2="159" y2="140" style="stroke:rgb(0,0,0);stroke-width:1;stroke-linecap:round"/>
<line x1="149" y1="192" x2="159" y2="192" style="stroke:rgb(0,0,0);stroke-width:1;stroke-linecap:round"/>
<line x1="149" y1="244" x2="159" y2="244" style="stroke:rgb(0,0,0);stroke-width:1;stroke-linecap:round"/>
<line x1="149" y1="296" x2="159" y2="296" style="stroke:rgb(0,0,0);stroke-width:1;stroke-linecap:round"/>
<line x1="149" y1="36" x2="149" y2="296" style="stroke:rgb(0,0,0);stroke-width:1;stroke-linecap:round"/>
<line x1="139" y1="36" x2="149" y2="36" style="stroke:rgb(0,0,0);stroke-width:1;stroke-linecap:round"/>
<path d="M105 26 L128 26 L134 32 L134 40 L128 46 L105 46 L99 40 L99 32 Z" style="fill:rgb(255,255,255);stroke:rgb(0,0,0);stroke-width:1"/>
<line x1="104" y1="36" x2="108" y2="36" style="stroke:rgb(0,0,0);stroke-width:1"/>
<line x1="108" y1="36" x2="112" y2="32" style="stroke:rgb(0,0,0);stroke-width:1"/>
<line x1="120" y1="32" x2="124" y2="32" style="stroke:rgb(0,0,0);stroke-width:1"/>
<line x1="120" y1="36" x2="128" y2="36" style="stroke:rgb(0,0,0);stroke-width:1"/>
<line x1="120" y1="40" x2="124" y2="40" style="stroke:rgb(0,0,0);stroke-width:1"/>
<line x1="124" y1="32" x2="124" y2="40" style="stroke:rgb(0,0,0);stroke-width:1"/>
<ellipse cx="116" cy="32" rx="2" ry="2" style="rgb(0,0,0)"/>
<ellipse cx="116" cy="36" rx="2" ry="2" style="rgb(0,0,0)"/>
<ellipse cx="116" cy="40" rx="2" ry="2" style="rgb(0,0,0)"/>
<rect x="129" y="31" width="10" height="10" style="fill:rgb(255,255,255);stroke:rgb(0,0,0);stroke-width:1"/>
<line x1="131" y1="36" x2="137" y2="36" style="stroke:rgb(0,0,0);stroke-width:1"/>

<line x1="79" y1="36" x2="99" y2="36" style="stroke:rgb(0,0,0);stroke-width:1;stroke-linecap:round"/>
<rect x="20" y="25" width="54" height="22" style="fill:rgb(255,255,255);stroke:rgb(0,0,0);stroke-width:1"/>
<text x="47" y="36" style="font-family:Arial;font-size:8pt;fill:rgb(0,0,0);font-weight:bold;text-anchor:middle;dominant-baseline:central">Twist</text>
<rect x="69" y="31" width="10" height="10" style="fill:rgb(255,255,255);stroke:rgb(0,0,0);stroke-width:1"/>
<line x1="71" y1="36" x2="77" y2="36" style="stroke:rgb(0,0,0);stroke-width:1"/>
</svg>
